# xmcd
#
# Track frame offsets:
#	183
#	7438
#	18413
#	30983
#	43663
#	54805
#	63330
#	76718
#	88583
#	99195
#	109918
#	116978
#	129878
#	142683
#	152340
#	164758
#	173555
#	181400
#	195168
#	205898
#	216205
#	227400
#	244598
#	254825
#	268905
#
# Disc length: 3762 seconds
#
# Revision: 6
# Processed by: cddbd v1.5.2PL0 Copyright (c) Steve Scherf et al.
# Submitted via: EasyCDDAExtractor 16.0.6.1
#
DISCID=450eb019
DTITLE=Varios - C-066 25 Country Classics - Volume 3
DYEAR=1900
DGENRE=Country
TTITLE0=Barbara Mandrell - Kentucky Means Paradise
TTITLE1=Patsy Cline - Stop, Look and Listen
TTITLE2=George Jones - I Can't Escape From You
TTITLE3=Kitty Wells - Making Believe
TTITLE4=Dolly Parton - Honky Tonk Angels
TTITLE5=Waylon Jennings - Abilene
TTITLE6=Don Williams - Ruby Tuesday
TTITLE7=Kenny Rogers - Elvira
TTITLE8=Faron Young - If You Ain't Lovin'
TTITLE9=Waylon Jennings - Dream Baby
TTITLE10=Marty Robbins - Maybellene
TTITLE11=Jerry Lee Lewis - Good Rockin' Tonight
TTITLE12=Dolly Parton - Little Blossom
TTITLE13=Ned Miller - From A Jack To A King
TTITLE14=Willie Nelson - I Can't Find The Time
TTITLE15=Waylon Jennings - Love's Gonna Live Here
TTITLE16=George Jones - Jambalaya
TTITLE17=Don Williams - Where Do We Go From Here
TTITLE18=Kenny Rogers - Homemade Lies
TTITLE19=Patsy Cline - Turn The Cards Slowly
TTITLE20=Stonewall Jackson - Things To Talk About
TTITLE21=Johnny Lee - Your Song
TTITLE22=Willie Nelson - I Didn't Sleep A Wink
TTITLE23=George Jones - Cold Cold Heart
TTITLE24=Gene Pitney - Town Without Pity
EXTD=Tring
EXTT0=
EXTT1=
EXTT2=
EXTT3=
EXTT4=
EXTT5=
EXTT6=
EXTT7=
EXTT8=
EXTT9=
EXTT10=
EXTT11=
EXTT12=
EXTT13=
EXTT14=
EXTT15=
EXTT16=
EXTT17=
EXTT18=
EXTT19=
EXTT20=
EXTT21=
EXTT22=
EXTT23=
EXTT24=
PLAYORDER=
